<svg xmlns="http://www.w3.org/2000/svg" xmlns:xlink="http://www.w3.org/1999/xlink" width="500" zoomAndPan="magnify" viewBox="0 0 375 374.999991" height="500" preserveAspectRatio="xMidYMid meet" version="1.0"><defs><clipPath id="04d12f0442"><path d="M 9.113281 38.125 L 365.996094 38.125 L 365.996094 346.375 L 9.113281 346.375 Z M 9.113281 38.125 " clip-rule="nonzero"/></clipPath></defs><g clip-path="url(#04d12f0442)"><path fill="#05e0e9" d="M 365.664062 192.25 C 365.664062 107.265625 296.554688 38.125 211.605469 38.125 L 18.675781 38.125 C 13.5 38.125 9.3125 42.3125 9.3125 47.488281 L 9.3125 337.003906 C 9.3125 342.175781 13.5 346.367188 18.675781 346.367188 L 211.605469 346.367188 C 211.621094 346.367188 211.632812 346.359375 211.640625 346.359375 C 296.574219 346.34375 365.664062 277.21875 365.664062 192.25 Z M 211.605469 327.636719 C 211.597656 327.636719 211.582031 327.636719 211.574219 327.636719 L 28.035156 327.636719 L 28.035156 56.851562 L 211.605469 56.851562 C 286.230469 56.851562 346.9375 117.59375 346.9375 192.25 C 346.9375 266.90625 286.230469 327.636719 211.605469 327.636719 Z M 211.605469 327.636719 " fill-opacity="1" fill-rule="nonzero"/></g><path fill="#05e0e9" d="M 211.605469 86.375 L 66.90625 86.375 C 61.734375 86.375 57.542969 90.566406 57.542969 95.738281 C 57.542969 95.738281 57.542969 95.738281 57.542969 95.746094 C 57.542969 95.746094 57.542969 95.746094 57.542969 95.753906 L 57.542969 240.5 C 57.542969 245.675781 61.734375 249.863281 66.90625 249.863281 C 72.078125 249.863281 76.265625 245.675781 76.265625 240.5 L 76.265625 105.105469 L 211.605469 105.105469 C 259.636719 105.105469 298.707031 144.199219 298.707031 192.242188 C 298.707031 240.285156 259.636719 279.378906 211.605469 279.378906 L 66.90625 279.378906 C 61.734375 279.378906 57.542969 283.570312 57.542969 288.742188 C 57.542969 293.917969 61.734375 298.109375 66.90625 298.109375 L 211.574219 298.109375 C 211.582031 298.109375 211.597656 298.109375 211.605469 298.109375 C 269.957031 298.109375 317.425781 250.613281 317.425781 192.234375 C 317.425781 133.855469 269.957031 86.375 211.605469 86.375 Z M 211.605469 86.375 " fill-opacity="1" fill-rule="nonzero"/><path fill="#05e0e9" d="M 211.605469 231.136719 C 211.160156 231.136719 210.730469 231.210938 210.300781 231.269531 L 115.144531 231.269531 C 109.972656 231.269531 105.78125 235.460938 105.78125 240.632812 C 105.78125 245.808594 109.972656 249.996094 115.144531 249.996094 L 211.605469 249.996094 C 212.300781 249.996094 212.980469 249.910156 213.632812 249.761719 C 244.445312 248.671875 269.1875 223.332031 269.1875 192.25 C 269.1875 160.476562 243.347656 134.632812 211.597656 134.632812 L 163.375 134.632812 C 158.203125 134.632812 154.011719 138.824219 154.011719 144 C 154.011719 149.171875 158.203125 153.363281 163.375 153.363281 L 211.605469 153.363281 C 233.042969 153.363281 250.476562 170.8125 250.476562 192.25 C 250.476562 213.6875 233.042969 231.136719 211.605469 231.136719 Z M 211.605469 231.136719 " fill-opacity="1" fill-rule="nonzero"/></svg>